PathFileType	4	(X/Y/Z)	C:\Users\WrightLab\Desktop\Jo\P3_12.trc
DataRate	CameraRate	NumFrames	NumMarkers	Units	OrigDataRate	OrigDataStartFrame	OrigNumFrames
100.00	100.00	       75	19	mm	100.00	519	       593
Frame#	Time	Headset_Front			Headset_Back			Headset_Left			Headset_Right			Left_Shoulder			Right_Shoulder			Sternum			C7			Left Elbow			Right Elbow			Left Wrist			Right Wrist			Left ASIS			Right ASIS			S2			Left Knee			Right Knee			Left Ankle			Right Ankle			
		X1	Y1	Z1	X2	Y2	Z2	X3	Y3	Z3	X4	Y4	Z4	X5	Y5	Z5	X6	Y6	Z6	X7	Y7	Z7	X8	Y8	Z8	X9	Y9	Z9	X10	Y10	Z10	X11	Y11	Z11	X12	Y12	Z12	X13	Y13	Z13	X14	Y14	Z14	X15	Y15	Z15	X16	Y16	Z16	X17	Y17	Z17	X18	Y18	Z18	X19	Y19	Z19	

519	5.180																												-319.69016	977.43286	-1255.32898																			-310.69089	404.07687	-1410.42773				-377.70490	71.70991	-1403.94128	
520	5.190																												-323.28281	977.29706	-1259.12073																			-310.76776	404.03320	-1410.85107				-377.76413	71.54602	-1403.62085	
521	5.200																												-325.40906	977.14911	-1261.49390																			-310.85941	403.94995	-1411.34949				-378.04184	70.99824	-1403.99573	
522	5.210																												-328.49612	977.45483	-1264.12476																			-310.06219	403.47568	-1415.15613				-378.58838	71.36202	-1403.78357	
523	5.220																												-332.66736	976.81244	-1266.79236																			-310.00089	403.63834	-1414.84399				-379.17175	71.05808	-1404.13635	
524	5.230																												-334.86981	977.31702	-1268.92749																			-309.96042	403.73657	-1414.63611				-379.07227	70.97263	-1404.44202	
525	5.240																												-339.74481	977.47058	-1272.26172																			-309.93536	403.80859	-1414.50964				-379.60083	71.21989	-1404.30713	
526	5.250																												-342.28912	976.86719	-1275.14136																			-309.83371	403.98749	-1413.97351				-379.99646	70.83657	-1404.56152	
527	5.260																												-348.14322	977.42450	-1277.99072																			-309.80396	404.07660	-1413.82397				-380.04572	70.81052	-1404.60339	
528	5.270																												-350.64679	976.06909	-1281.67322																			-309.74808	404.21539	-1413.53760				-380.10648	70.76969	-1404.65393	
529	5.280																												-356.19739	976.15393	-1284.64294																			-309.22519	404.10504	-1415.34778				-380.49982	70.96935	-1404.01257	
530	5.290																												-361.39865	976.40625	-1288.63074																			-309.30865	404.01593	-1415.80005				-380.12378	71.44660	-1404.28748	
531	5.300																												-364.34903	975.21234	-1291.99890																			-308.90573	403.71927	-1418.25110				-380.45471	71.55170	-1404.48975	
532	5.310																												-370.52252	975.24866	-1296.47668																			-309.10254	403.48941	-1419.31445				-380.46906	72.14668	-1404.16650	
533	5.320																												-375.99747	975.24432	-1300.65686																			-309.53705	402.91998	-1421.64856				-380.70596	73.30505	-1405.25562	
534	5.330																												-380.10361	973.00171	-1307.20166																			-309.79974	403.40097	-1425.35266				-381.01212	74.12884	-1404.14551	
535	5.340																												-385.72427	973.25653	-1310.30176																			-310.82202	404.75128	-1428.08838				-381.39328	74.28416	-1405.37170	
536	5.350																												-391.41254	973.05811	-1313.64661																			-311.87253	405.03348	-1430.26245				-381.68417	74.18979	-1405.76331	
537	5.360																												-396.97852	972.38684	-1324.58020																			-312.05209	405.21704	-1431.31030				-382.55118	74.70161	-1405.98694	
538	5.370																																																	-312.62878	406.17700	-1431.63342				-384.08112	75.70341	-1406.32275	
539	5.380																																																	-315.47906	409.91373	-1424.26819				-385.10718	75.44711	-1407.01257	
540	5.390																																																	-316.90955	407.50580	-1431.80676				-385.98358	75.99929	-1408.22241	
541	5.400																																																	-318.61945	408.04733	-1440.34412				-385.85385	76.85699	-1408.24866	
542	5.410																																																	-320.70728	409.75409	-1436.94080				-386.68396	79.36182	-1407.34387	
543	5.420																																																	-323.15533	411.51096	-1434.41675				-387.02060	80.22707	-1408.46387	
544	5.430																																																	-325.78720	409.20248	-1444.94763				-386.83002	81.25355	-1406.75732	
545	5.440																																																	-329.47043	413.97433	-1437.10889				-388.30145	81.03262	-1409.33862	
546	5.450																																																	-330.43646	413.79684	-1442.06409				-389.70691	82.54591	-1409.69653	
547	5.460																																																	-333.38123	413.74469	-1451.39685				-391.88800	83.44261	-1410.91772	
548	5.470																																																	-335.93280	416.44946	-1446.82556				-391.96381	83.96790	-1411.08496	
549	5.480																																																	-338.33969	416.75208	-1447.79749				-393.28278	85.29175	-1413.64111	
550	5.490																																																	-341.57440	414.90121	-1456.97046				-394.26608	85.22873	-1415.68909	
551	5.500																																																	-344.24252	417.73499	-1451.48022				-396.73315	86.01694	-1419.19409	
552	5.510																																																	-347.19086	418.30060	-1458.01379				-398.26498	85.97787	-1422.55542	
553	5.520																																																	-350.75211	418.87656	-1461.03210				-399.29565	86.90813	-1426.38062	
554	5.530																																																	-352.89990	419.92126	-1460.70142				-400.81830	89.13151	-1428.08252	
555	5.540																																																	-356.85498	418.08228	-1469.66492				-403.66211	88.78157	-1433.47571	
556	5.550																																																	-359.63889	420.32346	-1466.28491				-405.57852	88.02725	-1438.55518	
557	5.560																																																	-363.71271	419.60837	-1473.66711				-407.86206	88.48459	-1441.73096	
558	5.570																																																	-366.64328	421.78159	-1472.75244				-410.53491	85.99839	-1450.93726	
559	5.580																																																	-369.09906	420.46069	-1480.74731				-412.57590	87.88023	-1453.14294	
560	5.590																																																	-371.82822	419.25275	-1486.55273				-415.74771	86.40082	-1459.90747	
561	5.600																																																	-375.15707	421.41028	-1482.53308				-418.78577	88.08134	-1466.15051	
562	5.610																																																	-378.71552	418.39581	-1492.88599				-423.45987	86.20487	-1476.17261	
563	5.620																																																	-381.47577	420.36526	-1489.30042				-426.74936	87.47138	-1480.62769	
564	5.630																																																	-385.53683	417.94058	-1498.48462				-431.56122	86.43385	-1490.67932	
565	5.640																																																	-390.09628	421.08948	-1492.66418				-435.73801	84.03374	-1498.56287	
566	5.650																																																	-394.47968	416.78189	-1507.03503				-440.07227	84.66095	-1510.39575	
567	5.660																																																	-399.86307	418.54715	-1505.22900				-443.83261	85.29837	-1518.10022	
568	5.670																																																	-405.24493	420.72803	-1506.50696				-448.59479	84.71030	-1530.25354	
569	5.680																																																	-410.38834	418.13116	-1519.64709				-452.29199	84.88393	-1538.08093	
570	5.690																																																	-415.83380	419.38184	-1518.47498				-455.47800	83.63667	-1552.51587	
571	5.700																																																	-420.03458	419.27982	-1522.03687				-459.44241	85.00610	-1561.73792	
572	5.710																																																	-425.46802	415.74609	-1533.34436				-461.78369	86.35966	-1566.69922	
573	5.720																																																	-429.22101	419.20950	-1527.85852				-464.93799	82.44210	-1588.12183	
574	5.730																																																	-434.38406	416.21466	-1537.77844				-467.29880	84.17954	-1596.55444	
575	5.740																																																	-437.74060	417.10739	-1537.04968				-470.07907	84.14804	-1607.17102	
576	5.750																																																	-441.89856	414.99274	-1545.75269				-472.45389	83.43080	-1617.10950	
577	5.760																																																	-445.88049	415.62622	-1544.29858				-474.47351	84.76208	-1628.39172	
578	5.770																																																	-449.82278	413.77792	-1551.87964				-476.51709	84.44749	-1637.65442	
579	5.780																																																	-453.67969	414.55847	-1549.79150				-478.69525	84.75515	-1648.24756	
580	5.790																																																	-457.94827	413.49335	-1557.46729				-480.32825	86.90396	-1651.89111	
581	5.800																																																	-461.73618	413.02151	-1558.78552				-481.27490	86.86974	-1662.89819	
582	5.810																																																	-465.88672	412.83182	-1565.04858				-483.55795	86.96245	-1668.51843	
583	5.820																																																	-469.26453	412.47610	-1569.91833				-483.64655	86.71302	-1675.65686	
584	5.830																																																	-473.09109	412.18781	-1575.38892				-485.47522	88.15132	-1679.11499	
585	5.840																																																	-476.86807	410.24927	-1580.25281				-487.24777	85.97287	-1687.29919	
586	5.850																																																	-480.63611	411.05350	-1583.75232				-487.69968	84.00965	-1693.88879	
587	5.860																																																	-482.01312	409.07611	-1590.33667				-489.01392	82.83856	-1695.79041	
588	5.870																																																	-484.89429	406.50766	-1600.97827				-490.93115	83.33600	-1695.18616	
589	5.880																																																	-486.20712	407.44852	-1601.76086				-493.36887	79.25004	-1702.92297	
590	5.890																																																	-486.83896	406.90387	-1606.25781				-495.00806	78.37756	-1704.59521	
591	5.900																																																	-488.52103	405.30255	-1614.62085				-496.55124	76.72987	-1704.45728	
592	5.910																																																	-489.59143	403.49274	-1622.67249				-498.29449	74.64381	-1705.25403	
593	5.920																																																	-489.64349	402.13101	-1627.50610				-498.87973	72.37795	-1708.80505	
